<?xml version="1.0" standalone="no"?>
<!DOCTYPE svg PUBLIC "-//W3C//DTD SVG 1.1//EN" "http://www.w3.org/Graphics/SVG/1.1/DTD/svg11.dtd" >
<svg xmlns="http://www.w3.org/2000/svg" xmlns:xlink="http://www.w3.org/1999/xlink" version="1.1">
<metadata></metadata>
<defs>
<font id="geomanist-wzlight" horiz-adv-x="1261" >
<font-face units-per-em="2048" ascent="1536" descent="-512" />
<missing-glyph horiz-adv-x="538" />
<glyph unicode="&#x2e;&#x2e;&#x2e;" horiz-adv-x="1286" d="M115 59q0 35 25 61q26 26 61 26t61 -26t25 -61q0 -35 -26 -61q-27 -26 -61 -25q-34 -1 -60 25t-25 61zM557 59q0 35 26 61q27 26 61 26t60 -26t25 -61q0 -35 -26 -61q-27 -26 -61 -25q-34 -1 -60 25t-25 61zM999 59q0 35 26 61q27 26 61 26t60 -26t26 -61t-26 -61 t-61 -25q-35 -1 -61 25t-25 61z" />
<glyph horiz-adv-x="0" />
<glyph unicode="&#xd;" horiz-adv-x="681" />
<glyph unicode=" "  horiz-adv-x="538" />
<glyph unicode="&#x09;" horiz-adv-x="538" />
<glyph unicode="&#xa0;" horiz-adv-x="538" />
<glyph unicode="!" horiz-adv-x="495" d="M164 59q0 35 25 61q26 26 61 26q34 0 60 -26t26 -61t-26 -61t-60 -25q-34 -1 -60 25t-26 61zM197 1434h104l-8 -1096h-88z" />
<glyph unicode="&#x22;" horiz-adv-x="536" d="M104 1434h101l-12 -365h-76zM332 1434h100l-12 -365h-76z" />
<glyph unicode="#" horiz-adv-x="1316" d="M68 410l18 92h256l90 430h-254l17 92h258l84 410h100l-82 -410h330l84 410h100l-82 -410h262l-16 -92h-266l-88 -430h262l-17 -92h-266l-86 -410h-100l84 410h-332l-86 -410h-100l86 410h-256zM444 502h332l90 430h-331z" />
<glyph unicode="$" horiz-adv-x="1021" d="M82 281l90 32q84 -244 348 -243q131 0 217 76t86 206q0 84 -39 149t-99 105t-135 74q-75 35 -150 72t-135 81q-60 43 -99 115t-39 166q0 136 90 232t244 110v113h100v-111q137 -14 222 -90t118 -162l-88 -32q-35 76 -108 134q-74 58 -200 58t-200 -72t-74 -170 q1 -98 53 -165t129 -105t168 -84q91 -47 168 -92t129 -128t52 -192q0 -154 -100 -262t-269 -121v-151h-100v153q-156 13 -248 99t-131 205z" />
<glyph unicode="%" horiz-adv-x="1503" d="M94 1159q0 125 86 213t216 88t217 -87t87 -213t-88 -213t-217 -87t-215 87t-86 212zM147 0l1096 1434h113l-1096 -1434h-113zM193 1160q0 -90 57 -150t147 -60q91 0 147 60t56 149t-57 151t-147 62t-147 -61q-56 -61 -56 -151zM801 271q0 126 86 214t216 88t217 -88 t87 -213t-88 -212t-217 -87t-215 86t-86 212zM899 272q0 -90 57 -150q58 -60 148 -60t146 60t57 150t-57 150t-148 61q-90 0 -147 -60q-56 -61 -56 -151z" />
<glyph unicode="&#x26;" horiz-adv-x="1257" d="M86 391q0 240 258 381q-82 78 -128 156t-46 180q0 140 100 246t278 106t281 -96q105 -96 105 -240t-87 -242q-87 -99 -263 -196l403 -387q51 88 68 171q16 83 16 214h100q0 -150 -20 -252t-84 -205l152 -149l-78 -78l-142 147q-164 -174 -432 -174q-217 0 -349 121 t-132 297zM188 391q0 -147 108 -234t271 -87q107 0 203 41t160 106l-510 485q-100 -38 -166 -118t-66 -193zM272 1106q0 -70 39 -138t80 -110q41 -41 119 -108q322 156 321 358q1 116 -77 188t-203 72t-202 -74t-77 -188z" />
<glyph unicode="'" horiz-adv-x="309" d="M104 1434h101l-12 -365h-76z" />
<glyph unicode="(" horiz-adv-x="581" d="M160 -29v1291q0 264 237 264h33v-90h-22q-86 0 -116 -47t-30 -138v-1269q0 -90 30 -138t116 -47h22v-90h-33q-237 0 -237 264z" />
<glyph unicode=")" horiz-adv-x="581" d="M152 -203h22q86 0 116 47t29 138v1269q0 90 -29 138q-30 47 -116 47h-22v90h32q238 0 238 -264v-1291q0 -264 -238 -264h-32v90z" />
<glyph unicode="*" horiz-adv-x="870" d="M117 1227l47 78l223 -136v265h94v-267l226 138l45 -74l-232 -137l232 -136l-45 -75l-226 133v-260h-94v262l-223 -135l-45 73l229 136z" />
<glyph unicode="+" horiz-adv-x="1126" d="M86 592v92h428v459h100v-459h426v-92h-426v-459h-100v459h-428z" />
<glyph unicode="," horiz-adv-x="401" d="M109 -164q74 68 84 139q-33 3 -55 27t-23 58q0 34 23 60q24 26 61 26t63 -26t25 -67q0 -143 -123 -266z" />
<glyph unicode="-" horiz-adv-x="661" d="M82 565v99h498v-99h-498z" />
<glyph unicode="." horiz-adv-x="403" d="M115 59q0 35 25 61q26 26 61 26t61 -26t25 -61q0 -35 -26 -61q-27 -26 -61 -25q-34 -1 -60 25t-25 61z" />
<glyph unicode="/" horiz-adv-x="845" d="M61 -221l623 1757h100l-622 -1757h-101z" />
<glyph unicode="0" horiz-adv-x="1114" d="M111 718q0 374 96 558t350 184q255 0 351 -184t96 -558t-96 -558t-351 -184q-254 0 -350 184t-96 558zM217 763q0 -148 3 -217t14 -151q18 -135 92 -229q75 -94 232 -93t230 94t91 224t18 327q0 338 -55 463q-55 124 -150 159q-57 22 -135 22q-154 0 -229 -92t-93 -226 q-18 -133 -18 -281z" />
<glyph unicode="1" horiz-adv-x="606" d="M100 1335l238 99h84v-1434h-105v1325l-176 -76z" />
<glyph unicode="2" horiz-adv-x="1013" d="M92 0v41q0 109 73 217t176 197q103 90 207 182q103 92 176 204q73 111 73 233t-80 205t-219 83q-233 0 -301 -248l-93 23q16 96 102 201q44 54 121 88t173 34q193 0 299 -112t106 -281q0 -103 -51 -207t-129 -184q-151 -155 -336 -309q-78 -66 -129 -138t-51 -133h719 v-96h-836z" />
<glyph unicode="3" horiz-adv-x="1060" d="M84 268l88 37q76 -233 344 -233q141 0 237 94q95 94 95 244t-89 235q-89 84 -259 84h-125v88l416 520h-662v97h780v-105l-413 -504h36q172 1 297 -109t125 -302t-126 -315q-126 -124 -311 -124t-290 85q-104 85 -143 208z" />
<glyph unicode="4" horiz-adv-x="1118" d="M68 377v86l686 971h98v-959h197v-98h-197v-377h-104v377h-680zM193 475h555v797z" />
<glyph unicode="5" horiz-adv-x="1052" d="M86 268l88 37q76 -233 344 -233q150 0 237 104t87 263t-92 261t-242 102t-272 -102l-93 17l31 717h692v-99h-596l-24 -520q111 82 258 82q204 0 324 -128t120 -329q0 -200 -117 -332t-304 -132t-296 85q-109 86 -145 207z" />
<glyph unicode="6" horiz-adv-x="1103" d="M111 592q-1 868 503 868q168 0 316 -106l-56 -74q-119 84 -245 84q-237 0 -331 -206q-83 -179 -83 -437q125 197 339 197t327 -130t113 -344q0 -212 -116 -341q-116 -128 -321 -128q-446 0 -446 617zM215 580q0 -290 96 -407q83 -99 240 -99t247 100q89 100 89 272 t-84 272q-84 101 -240 101q-236 0 -348 -239z" />
<glyph unicode="7" horiz-adv-x="962" d="M63 1335v99h848v-86l-524 -1348h-108l522 1335h-738z" />
<glyph unicode="8" horiz-adv-x="1110" d="M102 378q0 171 86 265t181 125q-76 33 -146 118t-69 204q0 166 114 268q115 102 287 102t287 -102t114 -268q0 -119 -70 -204t-145 -118q95 -31 181 -125t86 -265t-128 -288t-325 -117t-325 117t-128 288zM211 400q0 -142 92 -236t252 -94t252 94t92 236t-98 228 q-99 87 -246 87t-245 -87q-98 -86 -99 -228zM262 1092q0 -114 84 -195q84 -82 209 -82t209 82t84 196q0 113 -78 191t-215 78t-215 -78t-78 -192z" />
<glyph unicode="9" horiz-adv-x="1103" d="M110 991q0 213 116 341t321 128q446 0 446 -616q0 -869 -504 -869q-170 0 -315 107l55 74q119 -84 245 -84q238 0 332 206q81 175 83 437q-125 -197 -339 -197t-327 130t-113 343zM217 990q0 -172 84 -272q84 -101 240 -102q236 0 348 240q0 290 -96 407q-83 99 -240 99 t-247 -100t-89 -272z" />
<glyph unicode=":" horiz-adv-x="401" d="M115 59q0 35 25 61q26 26 61 26t61 -26t25 -61q0 -35 -26 -61q-27 -26 -61 -25q-34 -1 -60 25t-25 61zM115 887q-1 35 25 61t61 25q35 0 61 -26q26 -27 25 -61q0 -34 -26 -60q-27 -26 -61 -26t-60 26q-25 26 -25 61z" />
<glyph unicode=";" horiz-adv-x="401" d="M109 -164q74 70 84 139q-33 3 -55 27t-23 58q0 34 23 60q24 26 61 26t63 -26t25 -67q0 -143 -123 -266zM115 887q-1 35 25 61t61 25q35 0 61 -26q26 -27 25 -61q0 -34 -26 -60q-27 -26 -61 -26t-60 26q-25 26 -25 61z" />
<glyph unicode="&#x3c;" horiz-adv-x="995" d="M86 592v94l821 377v-107l-700 -315l700 -322v-102z" />
<glyph unicode="=" horiz-adv-x="1126" d="M86 426v92h954v-92h-954zM86 741v93h954v-93h-954z" />
<glyph unicode="&#x3e;" horiz-adv-x="995" d="M88 217v102l700 322l-700 315v107l821 -377v-94z" />
<glyph unicode="?" horiz-adv-x="942" d="M92 1212q37 96 128 172t235 76q184 0 289 -105t106 -270q0 -96 -39 -177t-95 -136t-112 -105q-134 -120 -133 -235v-94h-102v94q0 136 130 264q54 52 109 106q131 127 131 283q0 123 -76 201q-77 78 -206 78q-195 0 -283 -190zM338 59q0 35 26 61t60 26t60 -26t26 -61 t-26 -61t-60 -25q-34 -1 -60 25t-26 61z" />
<glyph unicode="@" horiz-adv-x="1810" d="M90 541q0 356 232 600q232 243 594 243t582 -226t220 -546q0 -242 -83 -364t-226 -121q-90 0 -145 46t-70 118q-27 -53 -104 -109q-78 -55 -191 -55q-165 -1 -277 111t-112 292t113 292t283 112t276 -135v123h98v-541q0 -162 135 -162q88 0 144 97q55 97 55 296 q0 291 -192 486q-192 194 -508 194t-518 -219t-202 -534t196 -529q196 -213 497 -213q219 0 381 90l47 -73q-63 -43 -180 -77t-246 -34q-327 0 -563 241t-236 597zM616 530q0 -141 81 -226t204 -85t204 82q81 81 81 227t-78 230t-204 84t-207 -86t-81 -226z" />
<glyph unicode="A" d="M31 0l549 1434h102l549 -1434h-107l-194 514h-598l-195 -514h-106zM369 610h524l-262 705z" />
<glyph unicode="B" horiz-adv-x="1085" d="M174 0v1434h375q174 0 285 -102q110 -101 110 -262q0 -109 -54 -193t-138 -125q106 -37 174 -130t67 -221q1 -169 -117 -285t-294 -116h-408zM279 94h270q150 0 243 82t93 225t-95 221t-245 78h-266v-606zM279 795h282h3q117 0 194 77q78 78 78 195t-77 194 q-76 76 -195 76h-3h-282v-542z" />
<glyph unicode="C" horiz-adv-x="1361" d="M88 716q0 316 208 530t490 214t467 -157l-36 -95q-176 154 -422 154t-422 -184t-176 -462t173 -461t430 -183t447 172l35 -92q-76 -81 -216 -130q-141 -49 -259 -49q-305 0 -512 213q-207 214 -207 530z" />
<glyph unicode="D" horiz-adv-x="1286" d="M174 0v1434h254q372 0 572 -190t200 -536q0 -348 -202 -528t-570 -180h-254zM279 96h192q291 0 457 160t166 455t-168 461q-167 165 -452 165h-3h-192v-1241z" />
<glyph unicode="E" horiz-adv-x="964" d="M174 0v1434h653v-97h-548v-557h481v-96h-481v-588h571v-96h-676z" />
<glyph unicode="F" horiz-adv-x="954" d="M174 0v1434h653v-97h-548v-567h481v-96h-481v-674h-105z" />
<glyph unicode="G" horiz-adv-x="1497" d="M88 712q0 320 205 534t513 214t509 -194l-68 -72q-182 168 -444 168t-433 -185t-171 -464t171 -460q170 -181 446 -181t446 170v358h-344v96h446v-487q-213 -236 -561 -236q-307 0 -511 210q-204 209 -204 529z" />
<glyph unicode="H" horiz-adv-x="1402" d="M174 0v1434h105v-652h845v652h105v-1434h-105v684h-845v-684h-105z" />
<glyph unicode="I" horiz-adv-x="452" d="M174 0v1434h105v-1434h-105z" />
<glyph unicode="J" horiz-adv-x="677" d="M49 8l10 94q66 -20 144 -20q197 0 196 233v1119h105v-1125q0 -153 -75 -237t-218 -84q-93 0 -141 16z" />
<glyph unicode="K" horiz-adv-x="1107" d="M174 0v1434h105v-672l626 672h133l-639 -684l668 -750h-135l-653 729v-729h-105z" />
<glyph unicode="L" horiz-adv-x="913" d="M174 0v1434h105v-1338h571v-96h-676z" />
<glyph unicode="M" horiz-adv-x="1744" d="M174 0v1434h131l567 -1184l568 1184h131v-1434h-101v1280l-542 -1143h-111l-543 1143v-1280h-100z" />
<glyph unicode="N" horiz-adv-x="1433" d="M174 0v1434h102l879 -1264v1264h105v-1434h-105l-876 1266v-1266h-105z" />
<glyph unicode="O" horiz-adv-x="1622" d="M86 715q0 317 210 531t515 214t515 -215t210 -529t-211 -528t-516 -215q-305 1 -514 213t-209 529zM195 716q0 -278 177 -461t439 -183t439 183t177 459t-178 462t-439 186t-438 -184t-177 -462z" />
<glyph unicode="P" horiz-adv-x="1005" d="M174 0v1434h361q181 0 295 -117t114 -285t-117 -282t-292 -115h-256v-635h-105zM279 729h253q131 0 218 88q86 88 86 216t-87 216t-217 88h-253v-608z" />
<glyph unicode="Q" horiz-adv-x="1624" d="M86 715q0 317 210 531t515 214t515 -215t210 -524t-199 -520l158 -158l-72 -70l-159 158q-193 -158 -455 -158q-305 1 -514 213t-209 529zM195 716q0 -278 177 -461t439 -183q217 0 381 131l-164 166l70 71l166 -170q164 184 164 452t-179 454q-178 186 -439 186 t-438 -184t-177 -462z" />
<glyph unicode="R" horiz-adv-x="1081" d="M174 0v1434h330q200 0 314 -112t114 -278q0 -131 -73 -229t-193 -139l364 -676h-117l-346 655h-288v-655h-105zM279 750h229q145 0 229 78t84 213q0 134 -85 215t-234 81h-223v-587z" />
<glyph unicode="S" horiz-adv-x="1021" d="M82 281l90 32q84 -243 346 -243h2q131 0 217 76t86 206q0 84 -39 149t-99 105t-135 74q-75 35 -150 72t-135 81q-60 43 -99 115t-39 166q0 146 105 246q106 100 274 100t264 -80t131 -174l-88 -32q-35 76 -108 134q-74 58 -200 58t-200 -72t-74 -170q1 -98 53 -165 t129 -105t168 -84q91 -47 168 -92t129 -128t52 -192q0 -164 -113 -274t-296 -111q-183 0 -290 88q-106 89 -149 220z" />
<glyph unicode="T" horiz-adv-x="1046" d="M45 1337v97h928v-97h-412v-1337h-104v1337h-412z" />
<glyph unicode="U" horiz-adv-x="1359" d="M164 504v930h104v-928q0 -203 106 -319q106 -115 306 -115q201 0 306 116t106 318v928h104v-930q0 -244 -136 -388q-135 -143 -377 -143h-3.5h-2.5q-242 0 -377 143q-136 144 -136 388z" />
<glyph unicode="V" d="M23 1434h114l494 -1309l493 1309h115l-553 -1434h-111z" />
<glyph unicode="W" horiz-adv-x="1896" d="M27 1434h110l369 -1293l385 1293h115l385 -1293l368 1293h111l-420 -1434h-115l-387 1286l-387 -1286h-115z" />
<glyph unicode="X" horiz-adv-x="1200" d="M33 0l499 748l-454 686h127l395 -607l397 607h123l-454 -684l501 -750h-120l-451 670l-442 -670h-121z" />
<glyph unicode="Y" horiz-adv-x="1038" d="M23 1434h120l377 -650l381 650h117l-447 -752v-682h-104v682z" />
<glyph unicode="Z" horiz-adv-x="1208" d="M76 0v88l913 1249h-885v97h1014v-91l-913 -1247h917v-96h-1046z" />
<glyph unicode="[" horiz-adv-x="598" d="M176 -293v1819h270v-90h-167v-1639h167v-90h-270z" />
<glyph unicode="\" horiz-adv-x="845" d="M61 1536h101l622 -1757h-100z" />
<glyph unicode="]" horiz-adv-x="598" d="M152 -203h167v1639h-167v90h270v-1819h-270v90z" />
<glyph unicode="^" horiz-adv-x="1036" d="M98 651l373 783h94l373 -783h-109l-311 674l-311 -674h-109z" />
<glyph unicode="_" horiz-adv-x="1234" d="M78 -59h1079v-93h-1079v93z" />
<glyph unicode="`" horiz-adv-x="1007" d="M371 1485h118l150 -289h-94z" />
<glyph unicode="a" horiz-adv-x="1028" d="M80 327q0 151 116 249t291 98q101 0 183 -35t123 -80v162q0 131 -79 203q-78 72 -228 72t-312 -99l-43 80q176 113 373 113t294 -102t97 -273v-715h-84l-18 100q-111 -127 -297 -127h-4q-184 0 -298 101q-114 102 -114 253zM184 327q0 -110 85 -185q85 -74 221 -74 t223 74q86 74 86 186t-84 182t-223 70q-140 0 -224 -72t-84 -181z" />
<glyph unicode="b" horiz-adv-x="1245" d="M154 0v1481h102v-621q41 78 144 154t262 76q223 0 365 -158t142 -403t-145 -401q-144 -155 -370 -155h-3q-184 0 -319 128q-42 41 -76 96v-197h-102zM252 538q0 -204 112 -336t288 -132t294 127q117 127 117 331t-115 334q-115 131 -288 131q-172 0 -290 -126t-118 -329z " />
<glyph unicode="c" horiz-adv-x="1073" d="M78 531q0 234 152 397q153 162 380 162q140 0 240 -52t151 -110l-40 -90q-67 77 -166 116q-97 39 -181 39h-4q-182 0 -303 -132t-121 -327q0 -196 124 -330t316 -134t341 163l37 -90q-42 -53 -146 -111t-248 -59q-229 0 -381 162q-151 162 -151 396z" />
<glyph unicode="d" horiz-adv-x="1245" d="M76 530q0 244 142 402t366 158q158 0 261 -76t144 -154v621h103v-1481h-103v197q-92 -153 -258 -203q-66 -20 -137 -21q-227 0 -373 156q-145 157 -145 401zM182 527q0 -205 117 -331t294 -126t289 132q111 131 111 332q0 207 -117 333q-118 126 -291 126t-288 -131 t-115 -335z" />
<glyph unicode="e" horiz-adv-x="1163" d="M78 530q0 250 150 405q151 155 369 155t355 -150t138 -383v-43h-906q0 -209 120 -328q119 -118 311 -118h3q236 0 367 182l68 -47q-141 -229 -435 -230h-3q-236 0 -386 153q-151 154 -151 404zM190 604h793q-8 190 -121 290q-112 100 -270 101q-158 -1 -273 -103 t-129 -288z" />
<glyph unicode="f" horiz-adv-x="569" d="M57 971v92h123v63q0 184 86 266q85 81 214 81h3l56 -5v-92q-27 4 -52 4q-205 0 -204 -252v-65h247v-92h-247v-971h-103v971h-123z" />
<glyph unicode="g" horiz-adv-x="1234" d="M76 530q0 244 142 402t366 158q158 0 261 -76t144 -154v203h103v-909q0 -545 -517 -545h-4q-200 0 -370 110l43 82q152 -96 334 -96t296 91q115 91 115 286v115q-92 -153 -258 -203q-66 -20 -137 -21q-227 0 -373 156q-145 157 -145 401zM182 527q0 -205 117 -331 t294 -126t289 132q111 131 111 332q0 207 -117 333q-118 126 -291 126t-288 -131t-115 -335z" />
<glyph unicode="h" horiz-adv-x="1110" d="M154 0v1481h102v-586q41 83 132 139t200 56q168 0 273 -109t106 -291v-690h-103v682q0 143 -81 228t-215 85t-223 -96t-89 -250v-649h-102z" />
<glyph unicode="i" horiz-adv-x="409" d="M121 1346q1 36 25 60t59 24t59 -25t25 -59q0 -34 -25 -60q-26 -24 -60 -24t-59 24q-24 25 -24 60zM154 0v1063h102v-1063h-102z" />
<glyph unicode="j" horiz-adv-x="409" d="M-86 -295q25 -2 45 -2q195 0 195 252v1108h102v-1106q0 -184 -81 -265t-212 -81l-49 2v92zM121 1346q1 36 25 60t59 24t59 -25t25 -59q0 -34 -25 -60q-26 -24 -60 -24t-59 24q-24 25 -24 60z" />
<glyph unicode="k" horiz-adv-x="923" d="M154 0v1481h102v-879l489 461h138l-514 -477l540 -586h-137l-516 571v-571h-102z" />
<glyph unicode="l" horiz-adv-x="409" d="M154 0v1481h102v-1481h-102z" />
<glyph unicode="m" horiz-adv-x="1767" d="M154 0v1063h102v-168q35 80 121 137q85 58 201 58t203 -58t124 -155q45 104 138 158t214 55q171 0 269 -113t98 -293v-684h-102v641q0 354 -277 354q-135 0 -220 -93t-85 -263v-639h-102v682q0 145 -76 229t-203 84t-215 -97t-88 -251v-647h-102z" />
<glyph unicode="n" horiz-adv-x="1110" d="M154 0v1063h102v-168q41 83 132 139t200 56q168 0 273 -109t106 -291v-690h-103v682q0 143 -81 228t-215 85t-223 -96t-89 -250v-649h-102z" />
<glyph unicode="o" horiz-adv-x="1245" d="M78 531q0 241 155 400q157 159 391 159t390 -160t156 -399t-158 -399q-155 -159 -387 -159h-3q-234 1 -390 159q-154 158 -154 399zM184 530q0 -200 123 -330t316 -130t317 131q123 130 123 326q0 201 -124 334q-125 132 -317 132t-315 -132t-123 -331z" />
<glyph unicode="p" horiz-adv-x="1247" d="M154 -383v1446h102v-197q91 152 258 203q66 20 137 21q227 0 373 -156q145 -155 145 -397q0 -247 -142 -406q-142 -158 -365 -158q-158 0 -262 76q-103 76 -144 154v-586h-102zM252 525q0 -203 118 -329t290 -126t288 131q115 131 115 335t-117 330t-294 127 q-176 -1 -288 -133t-112 -335z" />
<glyph unicode="q" horiz-adv-x="1247" d="M78 534q0 244 145 400t373 156q187 0 319 -128q48 -46 76 -96v197h103v-1446h-103v586q-41 -78 -144 -154t-261 -76q-223 0 -366 158q-142 158 -142 403zM184 536q0 -204 115 -335t288 -131t291 126q117 126 117 333q0 200 -111 331q-112 132 -289 133q-177 0 -294 -127 q-117 -126 -117 -330z" />
<glyph unicode="r" horiz-adv-x="647" d="M154 0v1063h102v-191q27 86 117 152t211 66v-101q-174 0 -251 -120t-77 -308v-561h-102z" />
<glyph unicode="s" horiz-adv-x="837" d="M70 217l88 35q82 -186 274 -186q96 0 164 56t68 142t-56 139t-138 85q-81 32 -162 66t-137 100t-56 176t90 185t225 75t213 -66t100 -145l-84 -33q-68 153 -233 153h-2q-90 0 -150 -48q-59 -48 -59 -119q0 -74 41 -121t101 -72q176 -73 251 -113q156 -83 156 -250 q0 -133 -95 -218t-241 -85q-260 0 -358 244z" />
<glyph unicode="t" horiz-adv-x="567" d="M29 971v92h131v221h102v-221h250v-92h-250v-598q0 -171 46 -231t167 -60l47 2v-92q-49 -4 -88 -4q-129 0 -202 81t-72 238v664h-131z" />
<glyph unicode="u" horiz-adv-x="1099" d="M143 373v690h103v-682q0 -143 81 -228t215 -85t223 96t89 250v649h102v-1063h-102v168q-41 -84 -132 -140q-89 -55 -196 -55h-4q-168 0 -273 109t-106 291z" />
<glyph unicode="v" horiz-adv-x="987" d="M14 1063h111l369 -940l368 940h111l-426 -1063h-107z" />
<glyph unicode="w" horiz-adv-x="1658" d="M14 1063h111l324 -936q2 8 327 936h107l327 -936l324 936h111l-379 -1063h-109l-328 926l-327 -926h-109z" />
<glyph unicode="x" horiz-adv-x="1003" d="M29 0l407 553l-373 510h127l312 -436l311 436h127l-373 -510l408 -553h-125l-348 479l-348 -479h-125z" />
<glyph unicode="y" horiz-adv-x="1009" d="M14 1063h113l385 -936l373 936h110l-585 -1430h-107l156 369z" />
<glyph unicode="z" horiz-adv-x="942" d="M70 0v86l673 887h-651v90h764v-86l-672 -887h682v-90h-796z" />
<glyph unicode="{" horiz-adv-x="653" d="M82 571v91q150 0 149 227v373q0 264 238 264h33v-90h-23q-85 0 -115 -47t-30 -138v-366q0 -213 -125 -269q125 -55 125 -268v-366q0 -90 30 -138t115 -47h23v-90h-33q-238 0 -238 264v373q1 227 -149 227z" />
<glyph unicode="|" horiz-adv-x="485" d="M193 -391v1954h100v-1954h-100z" />
<glyph unicode="}" horiz-adv-x="653" d="M152 -203h22q86 0 116 47t29 138v366q0 213 125 268q-125 55 -125 269v366q0 90 -29 138q-30 47 -116 47h-22v90h32q238 0 238 -264v-373q-1 -227 149 -227v-91q-150 0 -149 -227v-373q0 -264 -238 -264h-32v90z" />
<glyph unicode="~" horiz-adv-x="1089" d="M102 502q0 106 64 178t176 72q72 0 150 -40t144 -80q68 -40 126 -40t94 45t39 113h92q0 -106 -63 -178t-176 -72q-70 0 -199 80t-204 80t-111 -46q-36 -45 -39 -112h-93z" />
<glyph unicode="&#xa1;" horiz-adv-x="495" d="M164 1061q0 35 26 61t60 25q34 0 60 -26q26 -27 26 -61t-26 -60t-60 -26t-61 26q-25 26 -25 61zM197 -313l8 1095h88l8 -1095h-104z" />
<glyph unicode="&#xa2;" horiz-adv-x="1087" d="M80 691q0 222 138 381t349 175v189h101v-191q121 -10 211 -61t125 -97l-41 -90q-27 31 -66 62t-119 63t-166 31q-182 0 -303 -132t-121 -327q0 -196 124 -330t316 -134t341 163l37 -90q-37 -47 -126 -101t-212 -67v-135h-101v135q-213 16 -350 175t-137 381z" />
<glyph unicode="&#xa3;" horiz-adv-x="1118" d="M86 0v96h145v574h-125v96h125v293q1 180 107 291t287 110q147 0 239 -75t121 -166l-84 -39q-29 72 -99 127t-194 55t-198 -82t-74 -225v-289h358v-96h-358v-574h678v-96h-928z" />
<glyph unicode="&#xa5;" horiz-adv-x="1087" d="M47 1434h121l377 -650l381 650h116l-395 -666h283v-90h-334v-203h334v-90h-334v-385h-104v385h-334v90h334v203h-334v90h282z" />
<glyph unicode="&#xa7;" horiz-adv-x="944" d="M74 612q0 96 55 172t137 107q-150 115 -149 287q0 143 99 233t265 90q279 0 367 -231l-82 -33q-78 170 -285 170q-127 0 -195 -62t-67 -169q0 -147 189 -261l223 -131q237 -141 237 -315q0 -102 -55 -178t-137 -107q150 -115 149 -286q0 -144 -99 -234t-265 -90 q-279 0 -367 231l82 33q78 -170 285 -170q127 0 195 62t67 170q0 147 -188 260l-306 186q-61 37 -108 103q-47 67 -47 163zM172 608q0 -123 109 -186l284 -170q86 4 146 66q59 63 59 149q0 133 -190 242l-203 114q-85 -4 -145 -66t-60 -149z" />
<glyph unicode="&#xa8;" horiz-adv-x="1007" d="M264 1337q0 35 25 60t59 25t60 -26q24 -24 24 -59t-24 -59t-60 -25q-36 1 -60 25t-24 59zM575 1337q0 35 25 60q26 25 60 25t59 -26q25 -24 25 -59t-26 -59q-24 -24 -59 -25q-35 1 -59 25t-25 59z" />
<glyph unicode="&#xa9;" horiz-adv-x="1660" d="M96 711q0 313 209 531t523 218t524 -216t211 -530q0 -314 -207 -528q-208 -214 -526 -215t-526 213t-208 527zM199 713q0 -279 178 -465t453 -186q274 0 452 186t178 467t-178 467t-454 186t-452 -188q-177 -188 -177 -467zM457 712q0 172 103 284t287 112t298 -143 l-62 -64q-102 115 -241 115t-211 -85t-72 -218t72 -218t211 -85t241 114l62 -63q-115 -143 -299 -143t-287 111q-102 112 -102 283z" />
<glyph unicode="&#xaa;" horiz-adv-x="833" d="M100 884q0 116 87 192t223 75q136 0 223 -78v103q1 98 -57 149t-168 51t-234 -76l-39 74q145 86 291 86t221 -78q74 -78 74 -211v-538h-72l-14 67q-86 -86 -223 -86t-225 77q-87 77 -87 193zM188 884q0 -79 62 -133q62 -55 164 -55q100 0 162 54t63 135q0 82 -61 132 q-60 50 -162 50t-165 -52t-63 -131z" />
<glyph unicode="&#xab;" horiz-adv-x="815" d="M76 596l256 373h110l-256 -373l256 -371h-110zM371 596l256 373h110l-256 -373l256 -371h-110z" />
<glyph unicode="&#xad;" horiz-adv-x="661" d="M82 565v99h498v-99h-498z" />
<glyph unicode="&#xae;" horiz-adv-x="925" d="M43 1106q0 176 115 295q116 119 304 119t304 -118t115 -293q0 -175 -115 -295t-303 -120t-304 118t-116 294zM129 1108q0 -148 89 -242t244 -94t244 93t89 243t-90 242t-245 92t-243 -93t-88 -241zM332 885v442h137q152 -1 152 -145q0 -72 -68 -103l84 -194h-88l-68 174 h-65v-174h-84zM416 1135h61q53 0 53 58t-53 58h-61v-116z" />
<glyph unicode="&#xaf;" horiz-adv-x="929" d="M229 1315v90h471v-90h-471z" />
<glyph unicode="&#xb0;" horiz-adv-x="706" d="M70 1179q0 117 78 199t204 82q125 0 204 -80t79 -200t-79 -199q-79 -80 -205 -80t-204 80q-77 80 -77 198zM164 1180q0 -84 52 -140t136 -55q84 0 136 55q52 54 52 140t-52 141q-54 55 -137 55t-135 -56t-52 -140z" />
<glyph unicode="&#xb2;" horiz-adv-x="681" d="M109 625v75q0 127 133 239q55 46 111 90q136 107 134 194q0 59 -41 100t-108 41q-102 0 -156 -113l-73 33q61 166 229 166q114 0 178 -65t64 -145q0 -136 -134 -241q-55 -43 -111 -86q-134 -103 -134 -202h391v-86h-483z" />
<glyph unicode="&#xb3;" horiz-adv-x="681" d="M88 776l74 35q53 -117 180 -117q72 0 119 42t47 118q0 168 -193 168h-67v80l223 246h-346v86h453v-78l-230 -254q104 0 179 -66t75 -180t-74 -180q-74 -68 -186 -68q-176 0 -254 168z" />
<glyph unicode="&#xb4;" horiz-adv-x="1007" d="M369 1196l149 289h119l-174 -289h-94z" />
<glyph unicode="&#xb5;" horiz-adv-x="1869" d="M80 327q0 151 116 249t291 98q101 0 183 -35t123 -80v162q0 131 -79 203q-78 72 -228 72t-312 -99l-43 80q176 113 377 113q152 0 244 -65t125 -179q71 117 181 180t240 64q224 0 362 -150t138 -383v-43h-905q0 -209 120 -328t314 -118q236 0 367 182l67 -47 q-141 -229 -434 -230q-157 0 -277 66t-182 188q-33 -100 -131 -177t-263 -77q-166 -1 -280 101t-114 253zM184 327q0 -110 85 -185q85 -74 221 -74t220 72q83 72 83 187q0 113 -81 183t-220 70q-140 0 -224 -72t-84 -181zM899 604h793q-8 190 -121 290t-271 101 q-158 -1 -272 -103t-129 -288z" />
<glyph unicode="&#xb6;" horiz-adv-x="993" d="M92 1060q0 156 110 264q110 110 265 110h111v-1526h-101v774q-161 0 -273 111t-112 267zM717 -92v1526h100v-1526h-100z" />
<glyph unicode="&#xb7;" horiz-adv-x="440" d="M133 643q0 35 26 61q27 26 61 25q34 0 60 -26q26 -27 26 -61t-26 -60t-61 -25q-35 -1 -61 25t-25 61z" />
<glyph unicode="&#xb8;" horiz-adv-x="929" d="M319 -446l13 84q33 -4 59 -5q127 1 127 93t-131 92h-33l25 202h82l-19 -124q168 -23 168 -168q0 -92 -63 -136t-158 -45z" />
<glyph unicode="&#xb9;" horiz-adv-x="489" d="M100 1372l154 62h74v-809h-92v716l-109 -45z" />
<glyph unicode="&#xba;" horiz-adv-x="946" d="M55 1037q0 183 119 303t297 120t296 -121t118 -302t-119 -302t-297 -121t-296 120t-118 303zM147 1035q-1 -146 91 -242q92 -97 233 -97t231 96t90 243q0 145 -90 243t-231 98t-233 -98t-91 -243z" />
<glyph unicode="&#xbb;" horiz-adv-x="815" d="M78 225l256 371l-256 373h110l256 -373l-256 -371h-110zM373 225l256 371l-256 373h110l256 -373l-256 -371h-110z" />
<glyph unicode="&#xbc;" horiz-adv-x="1572" d="M178 1372l154 62h74v-809h-93v716l-108 -45zM340 -84l813 1602h102l-813 -1602h-102zM901 170v72l399 567h86v-555h111v-84h-111v-170h-92v170h-393zM1008 254h286v414z" />
<glyph unicode="&#xbd;" horiz-adv-x="1591" d="M178 1372l154 62h74v-809h-93v716l-108 -45zM295 -84l813 1602h102l-813 -1602h-102zM983 0v76q0 127 133 238q56 46 112 90q134 105 134 194q0 59 -41 100t-109 41q-102 0 -155 -112l-74 32q61 166 229 166q113 -1 178 -65t64 -162q0 -64 -39 -122t-94 -101t-111 -86 q-134 -102 -135 -203h391v-86h-483z" />
<glyph unicode="&#xbe;" horiz-adv-x="1695" d="M129 776l74 35q53 -117 180 -117q72 0 119 42t47 118q0 168 -193 168h-67v80l223 246h-346v86h452v-78l-229 -254q104 0 179 -66t75 -180t-74 -180q-74 -68 -186 -68q-176 0 -254 168zM463 -84l813 1602h102l-813 -1602h-102zM983 170v72l399 567h86v-555h111v-84h-111 v-170h-92v170h-393zM1090 254h286v414z" />
<glyph unicode="&#xbf;" horiz-adv-x="942" d="M92 35q0 96 39 177t94 136q55 56 111 106q134 120 135 234v94h102v-94q0 -139 -130 -264q-54 -52 -109 -106q-131 -127 -131 -283q0 -123 77 -201t205 -78q195 0 283 191l82 -39q-37 -96 -128 -172t-235 -76q-184 0 -289 106t-106 269zM432 1061q0 35 26 61t60 25 q34 1 60 -25t26 -61t-26 -61t-60 -26t-60 26t-26 61z" />
<glyph unicode="&#xc0;" d="M31 0l549 1434h102l549 -1434h-107l-194 514h-598l-195 -514h-106zM369 610h524l-262 705zM406 1819h118l150 -289h-94z" />
<glyph unicode="&#xc1;" d="M31 0l549 1434h102l549 -1434h-107l-194 514h-598l-195 -514h-106zM369 610h524l-262 705zM580 1530l149 289h119l-174 -289h-94z" />
<glyph unicode="&#xc2;" d="M31 0l549 1434h102l549 -1434h-107l-194 514h-598l-195 -514h-106zM369 610h524l-262 705zM383 1546l190 256h115l191 -256h-109l-139 180l-139 -180h-109z" />
<glyph unicode="&#xc3;" d="M31 0l549 1434h102l549 -1434h-107l-194 514h-598l-195 -514h-106zM332 1571q0 84 49 135t115 51t149 -49q84 -49 120 -49q37 0 59 27t24 71h84q0 -84 -47 -136t-113 -52t-149 49q-82 49 -120 49t-61 -26t-24 -70h-86zM369 610h524l-262 705z" />
<glyph unicode="&#xc4;" d="M31 0l549 1434h102l549 -1434h-107l-194 514h-598l-195 -514h-106zM369 610h524l-262 705zM391 1663q0 35 25 59q26 24 60 25q34 0 59 -25q25 -26 25 -60t-26 -58q-24 -24 -59 -25q-35 1 -59 25t-25 59zM702 1663q0 35 25 59t59 25q34 0 60 -25q24 -26 24 -60t-24 -58 t-60 -25q-36 1 -60 25t-24 59z" />
<glyph unicode="&#xc5;" d="M31 0l549 1434h102l549 -1434h-107l-194 514h-598l-195 -514h-106zM369 610h524l-262 705zM463 1690q0 72 47 118t121 47q74 0 121 -46q47 -45 47 -117t-47 -120t-121 -48t-121 47t-47 119zM543 1691q1 -40 25 -65q24 -24 64 -24t64 24t23 65q0 41 -24 65q-25 24 -65 24 t-64 -24t-23 -65z" />
<glyph unicode="&#xc6;" horiz-adv-x="1613" d="M18 0l721 1434h738v-97h-549v-557h481v-96h-481v-588h571v-96h-676v514h-442l-250 -514h-113zM430 610h393v727h-39z" />
<glyph unicode="&#xc7;" horiz-adv-x="1361" d="M88 731q0 301 208 515t490 214t467 -157l-36 -95q-176 154 -422 154t-422 -184t-176 -462t173 -461t430 -183t447 172l35 -92q-76 -81 -216 -130q-141 -49 -259 -49l-33 2l-10 -79q168 -23 168 -168q0 -92 -64 -136t-157 -45l-70 7l12 84q33 -4 60 -5q127 1 127 93 t-131 92h-33l18 164q-264 40 -435 244t-171 505z" />
<glyph unicode="&#xc8;" horiz-adv-x="964" d="M174 0v1434h653v-97h-548v-557h481v-96h-481v-588h571v-96h-676zM324 1819h118l150 -289h-94z" />
<glyph unicode="&#xc9;" horiz-adv-x="964" d="M174 0v1434h653v-97h-548v-557h481v-96h-481v-588h571v-96h-676zM444 1530l150 289h119l-174 -289h-95z" />
<glyph unicode="&#xca;" horiz-adv-x="964" d="M174 0v1434h653v-97h-548v-557h481v-96h-481v-588h571v-96h-676zM270 1546l191 256h114l191 -256h-109l-139 180l-139 -180h-109z" />
<glyph unicode="&#xcb;" horiz-adv-x="964" d="M174 0v1434h653v-97h-548v-557h481v-96h-481v-588h571v-96h-676zM289 1663q1 35 25 59t59 25q35 0 59 -25q24 -26 25 -60q0 -34 -25 -58q-26 -24 -60 -25q-34 1 -58 25t-25 59zM600 1663q0 35 25 59t59 25q34 0 60 -25q24 -26 24 -60t-25 -58t-59 -25q-34 1 -60 25 q-24 24 -24 59z" />
<glyph unicode="&#xcc;" horiz-adv-x="452" d="M14 1819h119l150 -289h-95zM174 0v1434h105v-1434h-105z" />
<glyph unicode="&#xcd;" horiz-adv-x="452" d="M164 1530l149 289h119l-174 -289h-94zM174 0v1434h105v-1434h-105z" />
<glyph unicode="&#xce;" horiz-adv-x="452" d="M-12 1546l190 256h115l190 -256h-108l-139 180l-140 -180h-108zM174 0v1434h105v-1434h-105z" />
<glyph unicode="&#xcf;" horiz-adv-x="452" d="M-10 1663q0 35 24 59t60 25q36 0 60 -25q24 -26 24 -60t-25 -58t-59 -25q-34 1 -60 25q-24 24 -24 59zM174 0v1434h105v-1434h-105zM301 1663q0 35 25 59q26 24 60 25q34 0 58 -25q24 -26 25 -60q0 -34 -25 -58q-26 -24 -60 -25q-34 1 -58 25t-25 59z" />
<glyph unicode="&#xd0;" horiz-adv-x="1286" d="M51 680v94h123v660h254q372 0 572 -190t200 -536q0 -348 -202 -528t-570 -180h-254v680h-123zM279 96h192q291 0 457 160t166 455t-168 461t-455 165h-192v-563h331v-94h-331v-584z" />
<glyph unicode="&#xd1;" horiz-adv-x="1433" d="M174 0v1434h102l879 -1264v1264h105v-1434h-105l-876 1266v-1266h-105zM416 1571q0 84 49 135t113 51t149 -49q84 -49 121 -49q38 0 60 27t24 71h84q0 -84 -47 -136t-113 -52t-149 49q-82 49 -120 49t-61 -26t-24 -70h-86z" />
<glyph unicode="&#xd2;" horiz-adv-x="1622" d="M86 715q0 317 210 531t515 214t515 -215t210 -529t-211 -528t-516 -215q-305 1 -514 213t-209 529zM195 716q0 -278 177 -461t439 -183t439 183t177 459t-178 462t-439 186t-438 -184t-177 -462zM598 1819h119l149 -289h-94z" />
<glyph unicode="&#xd3;" horiz-adv-x="1622" d="M86 715q0 317 210 531t515 214t515 -215t210 -529t-211 -528t-516 -215q-305 1 -514 213t-209 529zM195 716q0 -278 177 -461t439 -183t439 183t177 459t-178 462t-439 186t-438 -184t-177 -462zM731 1530l150 289h118l-174 -289h-94z" />
<glyph unicode="&#xd4;" horiz-adv-x="1622" d="M86 715q0 317 210 531t515 214t515 -215t210 -529t-211 -528t-516 -215q-305 1 -514 213t-209 529zM195 716q0 -278 177 -461t439 -183t439 183t177 459t-178 462t-439 186t-438 -184t-177 -462zM563 1546l191 256h114l191 -256h-109l-139 180l-139 -180h-109z" />
<glyph unicode="&#xd5;" horiz-adv-x="1622" d="M86 715q0 317 210 531t515 214t515 -215t210 -529t-211 -528t-516 -215q-305 1 -514 213t-209 529zM195 716q0 -278 177 -461t439 -183t439 183t177 459t-178 462t-439 186t-438 -184t-177 -462zM520 1571q0 84 49 135t115 51t150 -49t120 -49t58 27q23 27 24 71h84 q0 -84 -47 -136t-113 -52t-149 49q-82 49 -120 49q-39 0 -61 -26t-24 -70h-86z" />
<glyph unicode="&#xd6;" horiz-adv-x="1622" d="M86 715q0 317 210 531t515 214t515 -215t210 -529t-211 -528t-516 -215q-305 1 -514 213t-209 529zM195 716q0 -278 177 -461t439 -183t439 183t177 459t-178 462t-439 186t-438 -184t-177 -462zM573 1663q0 35 25 59q26 24 60 25q34 0 59 -25q25 -26 25 -60t-26 -58 q-24 -24 -59 -25q-35 1 -59 25t-25 59zM885 1663q1 35 25 59t59 25q35 0 59 -25q24 -26 25 -60q0 -34 -25 -58q-26 -24 -60 -25q-34 1 -58 25t-25 59z" />
<glyph unicode="&#xd7;" horiz-adv-x="1091" d="M111 231l368 400l-368 401l65 68l369 -402l368 402l64 -66l-371 -401l373 -404l-66 -65l-370 401l-367 -399z" />
<glyph unicode="&#xd8;" horiz-adv-x="1624" d="M88 706q0 326 210 540t515 214q229 0 416 -131l110 139l78 -61l-110 -141q231 -216 231 -540t-211 -538t-516 -215q-233 0 -418 129l-106 -137l-78 60l108 139q-229 216 -229 542zM197 710q0 -282 186 -464l784 1003q-154 113 -354 113q-262 0 -439 -184t-177 -468z M457 182q156 -111 356 -110q261 0 439 183t178 462t-187 469z" />
<glyph unicode="&#xd9;" horiz-adv-x="1359" d="M164 504v930h104v-928q0 -203 106 -319q106 -115 306 -115q201 0 306 116t106 318v928h104v-930q0 -244 -136 -388t-380 -143q-244 -1 -380 143t-136 388zM494 1819h118l150 -289h-94z" />
<glyph unicode="&#xda;" horiz-adv-x="1359" d="M164 504v930h104v-928q0 -203 106 -319q106 -115 306 -115q201 0 306 116t106 318v928h104v-930q0 -244 -136 -388t-380 -143q-244 -1 -380 143t-136 388zM600 1530l150 289h118l-174 -289h-94z" />
<glyph unicode="&#xdb;" horiz-adv-x="1359" d="M164 504v930h104v-928q0 -203 106 -319q106 -115 306 -115q201 0 306 116t106 318v928h104v-930q0 -244 -136 -388t-380 -143q-244 -1 -380 143t-136 388zM434 1546l191 256h114l191 -256h-109l-139 180l-139 -180h-109z" />
<glyph unicode="&#xdc;" horiz-adv-x="1359" d="M164 504v930h104v-928q0 -203 106 -319q106 -115 306 -115q201 0 306 116t106 318v928h104v-930q0 -244 -136 -388t-380 -143q-244 -1 -380 143t-136 388zM449 1663q1 35 25 59t58 25q34 0 60 -25q24 -26 24 -60t-24 -58t-60 -25q-35 1 -59 25t-24 59zM760 1663 q0 35 24 59t60 25q36 0 60 -25q24 -26 24 -60t-25 -58t-59 -25q-34 1 -60 25q-24 24 -24 59z" />
<glyph unicode="&#xdd;" horiz-adv-x="1038" d="M23 1434h120l377 -650l381 650h117l-447 -752v-682h-104v682zM457 1530l149 289h119l-174 -289h-94z" />
<glyph unicode="&#xde;" horiz-adv-x="1005" d="M174 0v1434h105v-293h247q190 -1 304 -105t114 -290t-117 -296q-117 -108 -301 -108h-247v-342h-105zM279 436h245q145 0 229 83q83 83 83 224t-82 221t-230 80h-245v-608z" />
<glyph unicode="&#xdf;" horiz-adv-x="1079" d="M150 0v1126q0 174 94 260t259 86t249 -82q84 -83 84 -200q0 -190 -156 -266q148 -43 240 -155t92 -284q0 -237 -146 -361t-370 -124h-25v100h25q228 0 345 162q65 90 65 204q-1 215 -129 304q-128 90 -279 88h-27v100h27q102 0 170 62t67 166q0 194 -229 194 q-254 0 -254 -252v-1128h-102z" />
<glyph unicode="&#xe0;" horiz-adv-x="1028" d="M80 327q0 151 116 249t291 98q101 0 183 -35t123 -80v162q0 131 -79 203q-78 72 -228 72t-312 -99l-43 80q176 113 373 113t294 -102t97 -273v-715h-84l-18 100q-111 -127 -297 -127q-186 -1 -302 101q-114 102 -114 253zM184 327q0 -110 85 -185q85 -74 221 -74t223 74 q86 74 86 186t-84 182t-223 70q-140 0 -224 -72t-84 -181zM317 1485h119l150 -289h-94z" />
<glyph unicode="&#xe1;" horiz-adv-x="1028" d="M80 327q0 151 116 249t291 98q101 0 183 -35t123 -80v162q0 131 -79 203q-78 72 -228 72t-312 -99l-43 80q176 113 373 113t294 -102t97 -273v-715h-84l-18 100q-111 -127 -297 -127q-186 -1 -302 101q-114 102 -114 253zM184 327q0 -110 85 -185q85 -74 221 -74t223 74 q86 74 86 186t-84 182t-223 70q-140 0 -224 -72t-84 -181zM436 1196l150 289h119l-175 -289h-94z" />
<glyph unicode="&#xe2;" horiz-adv-x="1028" d="M80 327q0 151 116 249t291 98q101 0 183 -35t123 -80v162q0 131 -79 203q-78 72 -228 72t-312 -99l-43 80q176 113 373 113t294 -102t97 -273v-715h-84l-18 100q-111 -127 -297 -127q-186 -1 -302 101q-114 102 -114 253zM184 327q0 -110 85 -185q85 -74 221 -74t223 74 q86 74 86 186t-84 182t-223 70q-140 0 -224 -72t-84 -181zM266 1227l191 256h114l191 -256h-109l-139 180l-139 -180h-109z" />
<glyph unicode="&#xe3;" horiz-adv-x="1028" d="M80 327q0 151 116 249t291 98q101 0 183 -35t123 -80v162q0 131 -79 203q-78 72 -228 72t-312 -99l-43 80q176 113 373 113t294 -102t97 -273v-715h-84l-18 100q-111 -127 -297 -127q-186 -1 -302 101q-114 102 -114 253zM184 327q0 -110 85 -185q85 -74 221 -74t223 74 q86 74 86 186t-84 182t-223 70q-140 0 -224 -72t-84 -181zM213 1249q0 84 49 135q96 100 263 2q85 -49 121 -49t59 27t24 72h84q0 -84 -47 -136q-48 -52 -114 -53q-66 0 -148 49q-82 50 -120 50t-60 -26t-25 -71h-86z" />
<glyph unicode="&#xe4;" horiz-adv-x="1028" d="M80 327q0 151 116 249t291 98q101 0 183 -35t123 -80v162q0 131 -79 203q-78 72 -228 72t-312 -99l-43 80q176 113 373 113t294 -102t97 -273v-715h-84l-18 100q-111 -127 -297 -127q-186 -1 -302 101q-114 102 -114 253zM184 327q0 -110 85 -185q85 -74 221 -74t223 74 q86 74 86 186t-84 182t-223 70q-140 0 -224 -72t-84 -181zM283 1337q0 35 24 60q25 25 60 25t59 -26q24 -24 25 -59q0 -35 -25 -59q-26 -24 -60 -25q-34 1 -58 25t-25 59zM594 1337q0 35 24 60q25 25 60 25q36 0 60 -26q24 -24 24 -59t-25 -59t-59 -25q-34 1 -60 25 q-24 24 -24 59z" />
<glyph unicode="&#xe5;" horiz-adv-x="1028" d="M80 327q0 151 116 249t291 98q101 0 183 -35t123 -80v162q0 131 -79 203q-78 72 -228 72t-312 -99l-43 80q176 113 373 113t294 -102t97 -273v-715h-84l-18 100q-111 -127 -297 -127q-186 -1 -302 101q-114 102 -114 253zM184 327q0 -110 85 -185q85 -74 221 -74t223 74 q86 74 86 186t-84 182t-223 70q-140 0 -224 -72t-84 -181zM346 1360q0 72 47 119t121 47t121 -46t47 -118t-47 -120t-121 -48t-121 47t-47 119zM426 1361q0 -40 25 -65q25 -24 65 -24t63 24t23 65t-24 65t-64 24t-64 -24t-24 -65z" />
<glyph unicode="&#xe6;" horiz-adv-x="1726" d="M14 1251h111l354 -1124l332 1124h107l331 -1124l355 1124h110l-409 -1251h-109l-332 1114l-332 -1114h-108z" />
<glyph unicode="&#xe7;" horiz-adv-x="1073" d="M78 542q0 224 152 386q153 162 380 162q140 0 240 -52t151 -110l-40 -90q-67 77 -166 116q-99 40 -185 39q-182 0 -303 -132t-121 -327q0 -196 124 -330t316 -134t341 163l37 -90q-42 -53 -146 -111t-250 -59l-10 -77q168 -23 168 -168q0 -92 -64 -136t-157 -45l-70 7 l12 84q33 -4 60 -5q127 1 127 93t-131 92h-33l18 162q-198 30 -324 184t-126 378z" />
<glyph unicode="&#xe8;" horiz-adv-x="1163" d="M78 530q0 250 150 405q151 155 369 155t355 -150t138 -383v-43h-906q0 -209 120 -328t314 -118q236 0 367 182l68 -47q-141 -229 -435 -230q-238 -1 -389 153t-151 404zM190 604h793q-8 190 -121 290q-112 100 -270 101q-158 -1 -273 -103t-129 -288zM399 1485h119 l150 -289h-95z" />
<glyph unicode="&#xe9;" horiz-adv-x="1163" d="M78 530q0 250 150 405q151 155 369 155t355 -150t138 -383v-43h-906q0 -209 120 -328t314 -118q236 0 367 182l68 -47q-141 -229 -435 -230q-238 -1 -389 153t-151 404zM190 604h793q-8 190 -121 290q-112 100 -270 101q-158 -1 -273 -103t-129 -288zM510 1196l149 289 h119l-174 -289h-94z" />
<glyph unicode="&#xea;" horiz-adv-x="1163" d="M78 530q0 250 150 405q151 155 369 155t355 -150t138 -383v-43h-906q0 -209 120 -328t314 -118q236 0 367 182l68 -47q-141 -229 -435 -230q-238 -1 -389 153t-151 404zM190 604h793q-8 190 -121 290q-112 100 -270 101q-158 -1 -273 -103t-129 -288zM344 1227l191 256 h114l191 -256h-109l-139 180l-139 -180h-109z" />
<glyph unicode="&#xeb;" horiz-adv-x="1163" d="M78 530q0 250 150 405q151 155 369 155t355 -150t138 -383v-43h-906q0 -209 120 -328t314 -118q236 0 367 182l68 -47q-141 -229 -435 -230q-238 -1 -389 153t-151 404zM190 604h793q-8 190 -121 290q-112 100 -270 101q-158 -1 -273 -103t-129 -288zM352 1337 q0 35 25 60t59 25t60 -26q24 -24 24 -59t-24 -59t-60 -25q-36 1 -60 25t-24 59zM664 1337q0 35 24 60q25 25 60 25q36 0 60 -26q24 -24 24 -59t-26 -59q-24 -24 -58 -25q-34 1 -60 25q-24 24 -24 59z" />
<glyph unicode="&#xec;" horiz-adv-x="409" d="M-4 1485h119l149 -289h-94zM154 0v1063h102v-1063h-102z" />
<glyph unicode="&#xed;" horiz-adv-x="409" d="M141 1196l150 289h119l-174 -289h-95zM154 0v1063h102v-1063h-102z" />
<glyph unicode="&#xee;" horiz-adv-x="409" d="M-39 1227l191 256h114l191 -256h-109l-139 180l-139 -180h-109zM154 0v1063h102v-1063h-102z" />
<glyph unicode="&#xef;" horiz-adv-x="409" d="M-33 1337q0 35 25 60q26 25 60 25t59 -26q25 -24 25 -59t-26 -59q-24 -24 -59 -25q-35 1 -59 25t-25 59zM154 0v1063h102v-1063h-102zM279 1337q0 35 24 60q25 25 59 25t60 -26q24 -24 24 -59t-24 -59t-60 -25q-35 1 -59 25t-24 59z" />
<glyph unicode="&#xf0;" horiz-adv-x="1214" d="M84 506q0 225 146 377t382 151q166 0 287 -98q-51 80 -137 164t-146 121l-331 -134l-17 89l267 108q-109 76 -248 148l75 51q141 -66 277 -160l242 98l16 -88l-178 -73q406 -313 405 -719q0 -248 -140 -408t-376 -160t-381 154q-143 154 -143 379zM190 506 q0 -184 114 -311t304 -127t300 135t110 338q0 167 -116 283t-300 116t-298 -125t-114 -309z" />
<glyph unicode="&#xf1;" horiz-adv-x="1110" d="M154 0v1063h102v-168q41 83 132 139t200 56q168 0 273 -109t106 -291v-690h-103v682q0 143 -81 228t-215 85t-223 -96t-89 -250v-649h-102zM254 1249q0 84 49 135q97 101 264 2q84 -49 120 -49q37 0 59 27t24 72h84q0 -84 -47 -136t-113 -53q-66 0 -149 49 q-82 50 -120 50q-39 0 -61 -26t-24 -71h-86z" />
<glyph unicode="&#xf2;" horiz-adv-x="1245" d="M78 531q0 241 155 400q157 159 391 159t390 -160t156 -399t-158 -399q-156 -160 -390 -159t-390 159q-154 158 -154 399zM184 530q0 -200 123 -330t316 -130t317 131t123 329q0 198 -124 331q-125 132 -317 132t-315 -132t-123 -331zM401 1485h119l150 -289h-95z" />
<glyph unicode="&#xf3;" horiz-adv-x="1245" d="M78 531q0 241 155 400q157 159 391 159t390 -160t156 -399t-158 -399q-156 -160 -390 -159t-390 159q-154 158 -154 399zM184 530q0 -200 123 -330t316 -130t317 131t123 329q0 198 -124 331q-125 132 -317 132t-315 -132t-123 -331zM545 1196l149 289h119l-174 -289h-94 z" />
<glyph unicode="&#xf4;" horiz-adv-x="1245" d="M78 531q0 241 155 400q157 159 391 159t390 -160t156 -399t-158 -399q-156 -160 -390 -159t-390 159q-154 158 -154 399zM184 530q0 -200 123 -330t316 -130t317 131t123 329q0 198 -124 331q-125 132 -317 132t-315 -132t-123 -331zM381 1227l190 256h115l191 -256h-109 l-139 180l-140 -180h-108z" />
<glyph unicode="&#xf5;" horiz-adv-x="1245" d="M78 531q0 241 155 400q157 159 391 159t390 -160t156 -399t-158 -399q-156 -160 -390 -159t-390 159q-154 158 -154 399zM184 530q0 -200 123 -330t316 -130t317 131t123 329q0 198 -124 331q-125 132 -317 132t-315 -132t-123 -331zM332 1249q0 84 49 135q97 101 264 2 q84 -49 120 -49q37 0 59 27t24 72h84q0 -84 -47 -136t-113 -53q-66 0 -149 49q-82 50 -120 50t-61 -26t-24 -71h-86z" />
<glyph unicode="&#xf6;" horiz-adv-x="1245" d="M78 531q0 241 155 400q157 159 391 159t390 -160t156 -399t-158 -399q-156 -160 -390 -159t-390 159q-154 158 -154 399zM184 530q0 -200 123 -330t316 -130t317 131t123 329q0 198 -124 331q-125 132 -317 132t-315 -132t-123 -331zM387 1337q0 35 25 60q26 25 60 25 t58 -26q24 -24 25 -59q0 -35 -25 -59q-26 -24 -60 -25q-34 1 -58 25t-25 59zM698 1337q0 35 25 60t59 25t60 -26q24 -24 24 -59t-24 -59t-60 -25q-36 1 -60 25t-24 59z" />
<glyph unicode="&#xf7;" horiz-adv-x="1126" d="M86 592v92h954v-92h-954zM481 299q0 33 24 57q25 24 59 25q34 0 58 -25q24 -26 24 -58t-24 -56t-59 -25q-35 1 -59 25t-23 57zM481 977q0 35 24 59q25 24 59 23q34 0 58 -24q24 -25 24 -59t-24 -58t-59 -23q-35 -1 -59 23t-23 59z" />
<glyph unicode="&#xf8;" horiz-adv-x="1247" d="M78 524q0 248 155 407q156 159 392 159q172 0 311 -95l78 101l76 -62l-80 -100q160 -160 160 -401t-158 -401q-156 -160 -389 -159q-170 0 -299 82l-76 -96l-74 59l76 97q-172 161 -172 409zM184 528q0 -201 127 -333l563 723q-113 76 -251 75q-193 0 -316 -132 t-123 -333zM385 135q102 -66 238 -65q193 0 317 130t123 326q0 196 -117 326z" />
<glyph unicode="&#xf9;" horiz-adv-x="1099" d="M143 373v690h103v-682q0 -143 81 -228t215 -85t223 96t89 250v649h102v-1063h-102v168q-41 -84 -132 -140t-200 -55q-168 0 -273 109t-106 291zM375 1485h119l149 -289h-94z" />
<glyph unicode="&#xfa;" horiz-adv-x="1099" d="M143 373v690h103v-682q0 -143 81 -228t215 -85t223 96t89 250v649h102v-1063h-102v168q-41 -84 -132 -140t-200 -55q-168 0 -273 109t-106 291zM479 1196l150 289h119l-175 -289h-94z" />
<glyph unicode="&#xfb;" horiz-adv-x="1099" d="M143 373v690h103v-682q0 -143 81 -228t215 -85t223 96t89 250v649h102v-1063h-102v168q-41 -84 -132 -140t-200 -55q-168 0 -273 109t-106 291zM305 1227l191 256h114l191 -256h-109l-139 180l-139 -180h-109z" />
<glyph unicode="&#xfc;" horiz-adv-x="1099" d="M143 373v690h103v-682q0 -143 81 -228t215 -85t223 96t89 250v649h102v-1063h-102v168q-41 -84 -132 -140t-200 -55q-168 0 -273 109t-106 291zM317 1337q0 35 25 60q26 25 60 25t59 -26q25 -24 25 -59t-26 -59q-24 -24 -59 -25q-35 1 -59 25t-25 59zM629 1337 q0 35 24 60q25 25 60 25t59 -26q24 -24 25 -59q0 -35 -25 -59q-26 -24 -60 -25q-34 1 -58 25t-25 59z" />
<glyph unicode="&#xfd;" horiz-adv-x="1009" d="M14 1063h113l385 -936l373 936h110l-585 -1430h-107l156 369zM438 1196l150 289h119l-175 -289h-94z" />
<glyph unicode="&#xfe;" horiz-adv-x="1247" d="M154 -383v1864h102v-615q91 152 258 203q66 20 137 21q227 0 373 -156t145 -400q0 -244 -142 -403q-142 -158 -365 -158q-158 0 -262 76q-103 76 -144 154v-586h-102zM252 525q0 -203 118 -329t290 -126t288 131q115 131 115 335t-117 330t-294 127q-176 -1 -288 -133 t-112 -335z" />
<glyph unicode="&#xff;" horiz-adv-x="1009" d="M14 1063h113l385 -936l373 936h110l-585 -1430h-107l156 369zM274 1337q0 35 25 60t59 25t60 -26q24 -24 24 -59t-24 -59t-60 -25q-36 1 -60 25t-24 59zM586 1337q0 35 24 60q25 25 60 25q36 0 60 -26q24 -24 24 -59t-25 -59t-59 -25q-34 1 -60 25q-24 24 -24 59z" />
<glyph unicode="&#x152;" horiz-adv-x="2213" d="M86 715q0 317 210 531t515 214q94 0 195 -26h1062v-97h-854q134 -92 220 -237t100 -320h467v-96h-467q-8 -186 -93 -339t-227 -249h877v-96h-1085q-102 -27 -197 -27q-305 1 -514 213t-209 529zM195 716q0 -278 177 -461t439 -183t439 183t177 459t-178 462t-439 186 t-438 -184t-177 -462z" />
<glyph unicode="&#x153;" horiz-adv-x="2148" d="M78 531q0 241 155 400q156 159 392 159q164 0 294 -83t195 -225q61 144 186 226t275 82q225 0 362 -150t138 -383v-43h-906q0 -211 120 -329t315 -117q236 0 366 182l68 -47q-141 -229 -434 -230q-170 0 -299 82t-191 226q-66 -141 -196 -225q-131 -83 -295 -83 q-237 1 -391 159t-154 399zM184 530q0 -200 123 -330t316 -130t317 131t123 329q0 198 -124 331q-125 132 -317 132t-315 -132t-123 -331zM1176 604h792q-8 190 -121 290t-271 101q-158 -1 -272 -103t-128 -288z" />
<glyph unicode="&#x178;" horiz-adv-x="1038" d="M23 1434h120l377 -650l381 650h117l-447 -752v-682h-104v682zM283 1708q1 36 25 60t59 24t59 -25t25 -59q0 -34 -25 -60q-26 -24 -60 -24t-58 24t-25 60zM594 1708q0 36 24 60t60 24t60 -25t24 -59t-25 -60q-25 -24 -59 -24t-60 24q-24 24 -24 60z" />
<glyph unicode="&#x2c6;" horiz-adv-x="929" d="M217 1227l191 256h114l191 -256h-109l-139 180l-139 -180h-109z" />
<glyph unicode="&#x2dc;" horiz-adv-x="929" d="M164 1249q0 84 49 135q97 101 264 2q84 -49 120 -49q37 0 59 27t24 72h84q0 -84 -47 -136t-113 -53q-66 0 -149 49q-82 50 -120 50t-61 -26t-24 -71h-86z" />
<glyph unicode="&#x2000;" horiz-adv-x="927" />
<glyph unicode="&#x2001;" horiz-adv-x="1855" />
<glyph unicode="&#x2002;" horiz-adv-x="927" />
<glyph unicode="&#x2003;" horiz-adv-x="1855" />
<glyph unicode="&#x2004;" horiz-adv-x="618" />
<glyph unicode="&#x2005;" horiz-adv-x="463" />
<glyph unicode="&#x2006;" horiz-adv-x="309" />
<glyph unicode="&#x2007;" horiz-adv-x="309" />
<glyph unicode="&#x2008;" horiz-adv-x="231" />
<glyph unicode="&#x2009;" horiz-adv-x="371" />
<glyph unicode="&#x200a;" horiz-adv-x="103" />
<glyph unicode="&#x2010;" horiz-adv-x="661" d="M82 565v99h498v-99h-498z" />
<glyph unicode="&#x2011;" horiz-adv-x="661" d="M82 565v99h498v-99h-498z" />
<glyph unicode="&#x2012;" horiz-adv-x="661" d="M82 565v99h498v-99h-498z" />
<glyph unicode="&#x2013;" horiz-adv-x="1181" d="M82 565v92h1018v-92h-1018z" />
<glyph unicode="&#x2014;" horiz-adv-x="1720" d="M82 565v92h1556v-92h-1556z" />
<glyph unicode="&#x2018;" horiz-adv-x="337" d="M80 1186q0 143 123 266l55 -49q-74 -68 -84 -139q34 -2 56 -26t22 -59q0 -34 -24 -60q-24 -25 -60 -25t-63 26q-26 26 -25 66z" />
<glyph unicode="&#x2019;" horiz-adv-x="337" d="M80 1143q74 68 84 139q-34 2 -56 26t-22 59q0 33 24 59t60 26t62 -26t26 -66q0 -143 -123 -266z" />
<glyph unicode="&#x201a;" horiz-adv-x="401" d="M109 -164q74 68 84 139q-33 3 -55 27t-23 58q0 34 23 60q24 26 61 26t63 -26t25 -67q0 -143 -123 -266z" />
<glyph unicode="&#x201c;" horiz-adv-x="587" d="M80 1186q0 143 123 266l55 -49q-74 -68 -84 -139q34 -2 56 -26t22 -59q0 -34 -24 -60q-24 -25 -60 -25t-63 26q-26 26 -25 66zM330 1186q0 143 123 266l55 -49q-74 -68 -84 -139q34 -2 56 -26t22 -59q0 -34 -24 -60q-24 -25 -60 -25t-63 26q-26 26 -25 66z" />
<glyph unicode="&#x201d;" horiz-adv-x="587" d="M80 1143q74 68 84 139q-34 2 -56 26t-22 59q0 33 24 59t60 26t62 -26t26 -66q0 -143 -123 -266zM330 1143q74 68 84 139q-34 2 -56 26t-22 59q0 33 24 59t60 26t62 -26t26 -66q0 -143 -123 -266z" />
<glyph unicode="&#x201e;" horiz-adv-x="587" d="M80 -164q74 68 84 139q-34 3 -56 27t-22 58t24 60t60 26t62 -26t26 -67q0 -143 -123 -266zM330 -164q74 68 84 139q-34 3 -56 27t-22 58t23 60q24 26 61 26q36 0 62 -26t26 -67q0 -143 -123 -266z" />
<glyph unicode="&#x2022;" horiz-adv-x="831" d="M64 634q0 148 100 250t252 103q152 0 252 -102q100 -101 100 -249t-100 -250t-252 -103q-152 0 -252 102q-100 101 -100 249z" />
<glyph unicode="&#x202f;" horiz-adv-x="371" />
<glyph unicode="&#x2039;" horiz-adv-x="520" d="M76 596l256 373h110l-256 -373l256 -371h-110z" />
<glyph unicode="&#x203a;" horiz-adv-x="520" d="M76 225l256 371l-256 373h110l256 -373l-256 -371h-110z" />
<glyph unicode="&#x205f;" horiz-adv-x="463" />
<glyph unicode="&#x20ac;" horiz-adv-x="1267" d="M61 528v95h111q-6 45 -6 99t6 109h-111v93h129q60 238 240 388t428 148q195 0 324 -86l-47 -84q-123 72 -277 72q-205 0 -353 -121t-202 -317h625l-8 -93h-635q-17 -104 -2 -208h620l-6 -95h-596q51 -198 195 -326t340 -128q194 0 321 86l47 -82q-47 -37 -146 -71 t-212 -34q-252 0 -426 159t-232 396h-127z" />
<glyph unicode="&#x2122;" horiz-adv-x="1443" d="M57 1350v84h480v-84h-197v-652h-88v652h-195zM621 698v736h100l283 -551l282 551h100v-736h-83v582l-254 -498h-91l-253 498v-582h-84z" />
<glyph unicode="&#x25fc;" horiz-adv-x="1065" d="M0 0v1065h1065v-1065h-1065z" />
</font>
</defs>
</svg>
