<?xml version="1.0" encoding="UTF-8"?>
<svg width="200px" height="40px" viewBox="0 0 200 40" version="1.1" xmlns="http://www.w3.org/2000/svg" xmlns:xlink="http://www.w3.org/1999/xlink">
    <!-- Generator: Sketch 52.5 (67469) - http://www.bohemiancoding.com/sketch -->
    <title>logo-amaine</title>
    <desc>Created with Sketch.</desc>
    <defs>
        <radialGradient cx="49.3632267%" cy="49.8159984%" fx="49.3632267%" fy="49.8159984%" r="50.5886862%" gradientTransform="translate(0.493632,0.498160),scale(0.993750,1.000000),translate(-0.493632,-0.498160)" id="radialGradient-1">
            <stop stop-color="#033954" offset="0%"></stop>
            <stop stop-color="#29B6BD" offset="100%"></stop>
        </radialGradient>
    </defs>
    <g id="logo-amaine" stroke="none" stroke-width="1" fill="none" fill-rule="evenodd">
        <g id="logo" fill-rule="nonzero">
            <path d="M83.615368,13.128794 C85.7334246,15.206665 86.7924528,18.2870794 86.7924528,22.3700372 L86.7924528,38.75 L81.5780446,38.75 L81.5780446,22.9581804 C81.5780446,20.2041208 80.9357416,18.1274238 79.6511355,16.7280892 C78.3665295,15.3287546 76.5286643,14.6302612 74.13754,14.6326091 C71.4947183,14.6326091 69.3944705,15.4473224 67.8367967,17.0767489 C66.2791228,18.7061754 65.5002859,21.0434868 65.5002859,24.0886831 L65.5002859,38.75 L60.2858776,38.75 L60.2858776,22.9581804 C60.2858776,20.2041208 59.6495109,18.122728 58.3767774,16.7140019 C57.1040438,15.3052758 55.2661786,14.6067825 52.8631818,14.6185218 C50.2156111,14.6185218 48.1153633,15.4332351 46.5624385,17.0626616 C45.0095136,18.6920882 44.2306767,21.0293996 44.2259277,24.0745958 L44.2259277,38.7359127 L38.9937107,38.7359127 L38.9937107,10.2831673 L43.9801667,10.2831673 L43.9801667,14.5269546 C45.0258377,13.061419 46.4519572,11.9019263 48.1082398,11.1706647 C49.9422246,10.3749191 51.9293177,9.98315857 53.931708,10.0225529 C56.0034145,9.98330198 58.0535845,10.4438601 59.9047699,11.3643645 C61.6178973,12.2351532 63.0209662,13.602828 63.9259905,15.2841449 C65.0473026,13.6042255 66.6164667,12.2635142 68.4601037,11.4101481 C70.5047517,10.4521544 72.7442471,9.97024295 75.006608,10.001422 C78.6253503,10.0155093 81.494937,11.0579666 83.615368,13.128794 Z" id="Path" fill="#033954"></path>
            <path d="M120.754717,11.5097467 L120.754717,39.6705124 L115.704603,39.6705124 L115.704603,35.2075728 C114.55355,36.7489357 113.010505,37.9776635 111.224431,38.7751373 C109.362751,39.6040756 107.333179,40.021826 105.283333,39.9980037 C102.632902,40.0400585 100.016543,39.417025 97.6901258,38.1898338 C95.4889413,37.0049307 93.6785163,35.2443 92.4668652,33.1102351 C91.1687887,30.8046464 90.5148571,28.2122702 90.5694653,25.5883876 C90.512488,22.9742264 91.1667413,20.3913869 92.4668652,18.0978957 C93.6946382,15.9741145 95.5141641,14.2252184 97.7189836,13.0496525 C100.042745,11.8299251 102.653348,11.210679 105.297762,11.2519345 C107.283953,11.2312001 109.251782,11.6208191 111.06932,12.39467 C112.809973,13.1396447 114.325684,14.3002241 115.473741,15.7671333 L115.473741,11.5097467 L120.754717,11.5097467 Z M110.74467,34.2773582 C112.240509,33.4528494 113.461832,32.2333811 114.265321,30.7620529 C115.132944,29.1659276 115.568495,27.3837889 115.531456,25.5814197 C115.567728,23.7802408 115.132204,21.9994104 114.265321,20.4042704 C113.46529,18.9385681 112.242355,17.728382 110.74467,16.9203207 C107.609959,15.2900182 103.836869,15.2900182 100.702158,16.9203207 C99.2134883,17.7385574 97.99435,18.9462242 97.1851144,20.4042704 C96.2988772,21.9934222 95.8527966,23.7767714 95.8901209,25.5814197 C95.8520086,27.38726 96.298118,29.171925 97.1851144,30.7620529 C97.9990197,32.2231013 99.2164756,33.4375435 100.702158,34.2703903 C103.826973,35.9381709 107.619855,35.9381709 110.74467,34.2703903 L110.74467,34.2773582 Z" id="Shape" fill="#033954"></path>
            <polygon id="Path" fill="#033954" points="128.301887 10 133.333333 10 133.333333 38.75 128.301887 38.75"></polygon>
            <path d="M164.020008,13.1390833 C166.201329,15.2372025 167.293192,18.3103716 167.295597,22.3585904 L167.295597,38.75 L162.014251,38.75 L162.014251,22.9471446 C162.014251,20.1911604 161.334843,18.1130121 159.976027,16.7126996 C158.61721,15.3123871 156.676388,14.6134056 154.153559,14.6157551 C151.294032,14.6157551 149.038156,15.4310377 147.385932,17.0616029 C145.733708,18.6921682 144.908798,21.0311129 144.911203,24.0784373 L144.911203,38.75 L139.622642,38.75 L139.622642,10.2632737 L144.673109,10.2632737 L144.673109,14.562891 C145.771291,13.0678636 147.268769,11.8962921 149.002082,11.1760613 C150.95825,10.3643451 153.067556,9.96446214 155.192512,10.0024773 C158.893784,10.0024773 161.836282,11.0480126 164.020008,13.1390833 Z" id="Path" fill="#033954"></path>
            <path d="M195.268223,30.8807254 L198.125094,34.1776093 C196.821285,35.6830535 195.152323,36.8517584 193.267694,37.5790456 C188.473685,39.3448666 183.138182,39.1050841 178.53358,36.9168808 C176.223529,35.7567196 174.30827,33.9754256 173.017732,31.7868457 C171.699383,29.516355 171.027608,26.947319 171.071174,24.3427188 C171.034803,21.7687185 171.686804,19.2294118 172.963761,16.9717785 C174.17468,14.8249953 175.980326,13.0482936 178.177371,11.8417435 C180.462858,10.5983833 183.047547,9.96348536 185.668561,10.0016222 C188.180276,9.96979791 190.658275,10.563842 192.86471,11.7267359 C195.01016,12.8690383 196.793877,14.5557749 198.024348,16.6058453 C199.334771,18.8021489 200.016656,21.2972608 199.999691,23.8338974 L176.885662,28.1728197 C177.552739,30.0474978 178.860062,31.6456986 180.591679,32.7034213 C182.328349,33.7675318 184.422428,34.2995871 186.873916,34.2995871 C190.349656,34.2902935 193.147758,33.150673 195.268223,30.8807254 Z M180.75719,15.521986 C179.317512,16.3298775 178.146454,17.5197844 177.382196,18.9513029 C176.548173,20.5371815 176.132814,22.2985079 176.173244,24.0778529 L176.173244,24.6110698 L194.775287,21.2096335 C194.35156,19.2345543 193.225983,17.4660158 191.59459,16.2120315 C189.910064,14.9243765 187.813824,14.2475736 185.668561,14.2987236 C183.94762,14.2709773 182.250843,14.6935892 180.75719,15.521986 Z" id="Shape" fill="#033954"></path>
            <path d="M17.9392014,5.00205279 C13.2536334,4.93120239 8.7300253,6.69684326 5.35600395,9.91348788 C1.98089148,13.1298282 0.0518855228,17.5513469 0.00145186641,22.1867793 C-0.119917981,31.4482417 7.38359434,39.3538515 16.7290726,39.8128641 C18.5416378,39.9001492 20.3568361,39.7059498 22.1086126,39.2373329 C23.8885464,38.7525165 25.1189395,37.1476872 25.1107314,35.3216021 L25.1107314,28.0197705 L24.721634,28.4681905 C22.7316576,30.7810037 19.7140592,31.9706816 16.6612483,31.6459702 C12.2766317,31.2050584 8.79114595,27.8088819 8.27958939,23.4790764 C7.96131567,20.8425408 8.81275035,18.1988423 10.6141741,16.2302078 C13.1818473,13.3861465 17.2462469,12.383653 20.8633524,13.7022244 C24.480458,15.0207957 26.9150583,18.3924198 27.0026732,22.2044336 L27.0026732,34.5130337 C27.0026732,35.9682676 27.5871209,37.363899 28.6274444,38.3929048 C29.667768,39.4219106 31.0787495,40 32.5499891,40 L35.2201258,40 L35.2201258,22.8788291 C35.2201258,13.1936627 27.4881526,5.17506524 17.9392014,5.00205279 Z" id="Path" fill="url(#radialGradient-1)"></path>
            <path d="M128.118707,6.42826286 C127.407923,5.73146461 127.019332,4.77351793 127.045243,3.78198016 C127.030876,2.79254511 127.417711,1.83892771 128.118707,1.13569747 C128.814341,0.392760109 129.796283,-0.0198697867 130.817593,0.00157631133 C131.82379,-0.0276988786 132.798484,0.351849108 133.51648,1.05252858 C134.224667,1.73392131 134.613853,2.67825836 134.589944,3.65722684 C134.616165,4.67336765 134.229241,5.65718339 133.51648,6.38667842 C132.816512,7.12084815 131.835302,7.52492395 130.817593,7.49811715 C129.807158,7.53054999 128.828929,7.14277433 128.118707,6.42826286 Z" id="Path" fill="#29B6BD"></path>
        </g>
    </g>
</svg>